<mxfile host="app.diagrams.net" modified="2022-03-19T11:41:14.079Z" agent="5.0 (Windows NT 10.0; Win64; x64) AppleWebKit/537.36 (KHTML, like Gecko) Chrome/99.0.4844.51 Safari/537.36 Edg/99.0.1150.39" etag="wK05rLomVMzQ58U-JFuF" version="17.1.3" type="github">
  <diagram id="C5RBs43oDa-KdzZeNtuy" name="Page-1">
    <mxGraphModel dx="856" dy="545" grid="1" gridSize="10" guides="1" tooltips="1" connect="1" arrows="1" fold="1" page="1" pageScale="1" pageWidth="827" pageHeight="1169" math="0" shadow="0">
      <root>
        <mxCell id="WIyWlLk6GJQsqaUBKTNV-0" />
        <mxCell id="WIyWlLk6GJQsqaUBKTNV-1" parent="WIyWlLk6GJQsqaUBKTNV-0" />
        <mxCell id="hv9p5jouMC_Hm7xAcIea-0" value="" style="edgeStyle=orthogonalEdgeStyle;rounded=0;orthogonalLoop=1;jettySize=auto;html=1;entryX=0.5;entryY=0;entryDx=0;entryDy=0;" edge="1" parent="WIyWlLk6GJQsqaUBKTNV-1" source="hv9p5jouMC_Hm7xAcIea-1" target="hv9p5jouMC_Hm7xAcIea-3">
          <mxGeometry relative="1" as="geometry">
            <mxPoint x="297" y="100" as="targetPoint" />
          </mxGeometry>
        </mxCell>
        <mxCell id="hv9p5jouMC_Hm7xAcIea-1" value="开始" style="ellipse;whiteSpace=wrap;html=1;" vertex="1" parent="WIyWlLk6GJQsqaUBKTNV-1">
          <mxGeometry x="258" y="40" width="78" height="43" as="geometry" />
        </mxCell>
        <mxCell id="hv9p5jouMC_Hm7xAcIea-2" value="" style="edgeStyle=orthogonalEdgeStyle;rounded=0;orthogonalLoop=1;jettySize=auto;html=1;" edge="1" parent="WIyWlLk6GJQsqaUBKTNV-1" source="hv9p5jouMC_Hm7xAcIea-3" target="hv9p5jouMC_Hm7xAcIea-13">
          <mxGeometry relative="1" as="geometry" />
        </mxCell>
        <mxCell id="hv9p5jouMC_Hm7xAcIea-3" value="分析安全信息组需求" style="rounded=1;whiteSpace=wrap;html=1;fontSize=12;glass=0;strokeWidth=1;shadow=0;" vertex="1" parent="WIyWlLk6GJQsqaUBKTNV-1">
          <mxGeometry x="246" y="110" width="104" height="40" as="geometry" />
        </mxCell>
        <mxCell id="hv9p5jouMC_Hm7xAcIea-4" value="" style="edgeStyle=orthogonalEdgeStyle;rounded=0;orthogonalLoop=1;jettySize=auto;html=1;" edge="1" parent="WIyWlLk6GJQsqaUBKTNV-1" source="hv9p5jouMC_Hm7xAcIea-5" target="hv9p5jouMC_Hm7xAcIea-7">
          <mxGeometry relative="1" as="geometry" />
        </mxCell>
        <mxCell id="hv9p5jouMC_Hm7xAcIea-5" value="创建安全信息组" style="rounded=1;whiteSpace=wrap;html=1;fontSize=12;glass=0;strokeWidth=1;shadow=0;" vertex="1" parent="WIyWlLk6GJQsqaUBKTNV-1">
          <mxGeometry x="130" y="280" width="104" height="40" as="geometry" />
        </mxCell>
        <mxCell id="hv9p5jouMC_Hm7xAcIea-6" value="" style="edgeStyle=orthogonalEdgeStyle;rounded=0;orthogonalLoop=1;jettySize=auto;html=1;" edge="1" parent="WIyWlLk6GJQsqaUBKTNV-1" source="hv9p5jouMC_Hm7xAcIea-7" target="hv9p5jouMC_Hm7xAcIea-9">
          <mxGeometry relative="1" as="geometry">
            <Array as="points">
              <mxPoint x="182" y="440" />
              <mxPoint x="298" y="440" />
            </Array>
          </mxGeometry>
        </mxCell>
        <mxCell id="hv9p5jouMC_Hm7xAcIea-7" value="编辑安全信息内容" style="rounded=1;whiteSpace=wrap;html=1;fontSize=12;glass=0;strokeWidth=1;shadow=0;" vertex="1" parent="WIyWlLk6GJQsqaUBKTNV-1">
          <mxGeometry x="130" y="350" width="104" height="40" as="geometry" />
        </mxCell>
        <mxCell id="hv9p5jouMC_Hm7xAcIea-8" value="" style="edgeStyle=orthogonalEdgeStyle;rounded=0;orthogonalLoop=1;jettySize=auto;html=1;" edge="1" parent="WIyWlLk6GJQsqaUBKTNV-1" source="hv9p5jouMC_Hm7xAcIea-9" target="hv9p5jouMC_Hm7xAcIea-10">
          <mxGeometry relative="1" as="geometry" />
        </mxCell>
        <mxCell id="hv9p5jouMC_Hm7xAcIea-9" value="引用安全信息组" style="rounded=1;whiteSpace=wrap;html=1;fontSize=12;glass=0;strokeWidth=1;shadow=0;" vertex="1" parent="WIyWlLk6GJQsqaUBKTNV-1">
          <mxGeometry x="245" y="490" width="104" height="40" as="geometry" />
        </mxCell>
        <mxCell id="hv9p5jouMC_Hm7xAcIea-10" value="结束" style="ellipse;whiteSpace=wrap;html=1;" vertex="1" parent="WIyWlLk6GJQsqaUBKTNV-1">
          <mxGeometry x="257" y="560" width="78" height="43" as="geometry" />
        </mxCell>
        <mxCell id="hv9p5jouMC_Hm7xAcIea-11" style="edgeStyle=orthogonalEdgeStyle;rounded=0;orthogonalLoop=1;jettySize=auto;html=1;" edge="1" parent="WIyWlLk6GJQsqaUBKTNV-1" source="hv9p5jouMC_Hm7xAcIea-13" target="hv9p5jouMC_Hm7xAcIea-5">
          <mxGeometry relative="1" as="geometry" />
        </mxCell>
        <mxCell id="hv9p5jouMC_Hm7xAcIea-12" style="edgeStyle=orthogonalEdgeStyle;rounded=0;orthogonalLoop=1;jettySize=auto;html=1;" edge="1" parent="WIyWlLk6GJQsqaUBKTNV-1" source="hv9p5jouMC_Hm7xAcIea-13" target="hv9p5jouMC_Hm7xAcIea-15">
          <mxGeometry relative="1" as="geometry" />
        </mxCell>
        <mxCell id="hv9p5jouMC_Hm7xAcIea-13" value="已有安全信息组" style="rhombus;whiteSpace=wrap;html=1;" vertex="1" parent="WIyWlLk6GJQsqaUBKTNV-1">
          <mxGeometry x="258" y="190" width="80" height="80" as="geometry" />
        </mxCell>
        <mxCell id="hv9p5jouMC_Hm7xAcIea-14" style="edgeStyle=orthogonalEdgeStyle;rounded=0;orthogonalLoop=1;jettySize=auto;html=1;exitX=0.5;exitY=1;exitDx=0;exitDy=0;entryX=0.5;entryY=0;entryDx=0;entryDy=0;" edge="1" parent="WIyWlLk6GJQsqaUBKTNV-1" source="hv9p5jouMC_Hm7xAcIea-15" target="hv9p5jouMC_Hm7xAcIea-9">
          <mxGeometry relative="1" as="geometry">
            <Array as="points">
              <mxPoint x="414" y="440" />
              <mxPoint x="298" y="440" />
            </Array>
          </mxGeometry>
        </mxCell>
        <mxCell id="hv9p5jouMC_Hm7xAcIea-15" value="调整安全信息内容" style="rounded=1;whiteSpace=wrap;html=1;fontSize=12;glass=0;strokeWidth=1;shadow=0;" vertex="1" parent="WIyWlLk6GJQsqaUBKTNV-1">
          <mxGeometry x="362" y="310" width="104" height="40" as="geometry" />
        </mxCell>
        <mxCell id="hv9p5jouMC_Hm7xAcIea-16" value="No" style="text;html=1;align=center;verticalAlign=middle;resizable=0;points=[];autosize=1;strokeColor=none;fillColor=none;" vertex="1" parent="WIyWlLk6GJQsqaUBKTNV-1">
          <mxGeometry x="205" y="210" width="30" height="20" as="geometry" />
        </mxCell>
        <mxCell id="hv9p5jouMC_Hm7xAcIea-17" value="Yes" style="text;html=1;align=center;verticalAlign=middle;resizable=0;points=[];autosize=1;strokeColor=none;fillColor=none;" vertex="1" parent="WIyWlLk6GJQsqaUBKTNV-1">
          <mxGeometry x="350" y="210" width="30" height="20" as="geometry" />
        </mxCell>
      </root>
    </mxGraphModel>
  </diagram>
</mxfile>
